<svg xmlns="http://www.w3.org/2000/svg" height="512pt" version="1.1" viewBox="0 0 512 512" width="512pt">
<g id="surface1">
<path d="M 512 256 C 512 397.386719 397.386719 512 256 512 C 114.613281 512 0 397.386719 0 256 C 0 114.613281 114.613281 0 256 0 C 397.386719 0 512 114.613281 512 256 Z M 512 256 " style=" stroke:none;fill-rule:nonzero;fill:rgb(40.784314%,98.823529%,87.45098%);fill-opacity:1;" />
<path d="M 512 256 C 512 282.050781 508.109375 307.191406 500.871094 330.871094 C 468.859375 435.71875 371.328125 512 256 512 C 151.441406 512 61.511719 449.300781 21.769531 359.449219 C 7.769531 327.820312 0 292.820312 0 256 C 0 209.78125 12.25 166.429688 33.679688 129 C 77.800781 206.070312 160.839844 258 256 258 C 351.160156 258 434.210938 206.070312 478.320312 129 C 499.75 166.429688 512 209.78125 512 256 Z M 512 256 " style=" stroke:none;fill-rule:nonzero;fill:rgb(6.27451%,88.627451%,76.862745%);fill-opacity:1;" />
<path d="M 481.261719 377.699219 C 474.101562 390.921875 465.828125 403.441406 456.539062 415.128906 C 441.691406 433.820312 424.28125 450.378906 404.851562 464.289062 C 362.910156 494.320312 311.519531 512 256 512 C 200.480469 512 149.089844 494.320312 107.148438 464.289062 C 87.71875 450.378906 70.308594 433.820312 55.460938 415.128906 C 46.171875 403.441406 37.898438 390.921875 30.738281 377.699219 Z M 481.261719 377.699219 " style=" stroke:none;fill-rule:nonzero;fill:rgb(10.196078%,72.941176%,62.352941%);fill-opacity:1;" />
<path d="M 404.851562 169.328125 L 404.851562 464.289062 C 362.910156 494.320312 311.519531 512 256 512 C 200.480469 512 149.089844 494.320312 107.148438 464.289062 L 107.148438 169.328125 C 107.148438 156.25 117.410156 145.640625 130.070312 145.640625 L 381.929688 145.640625 C 394.589844 145.640625 404.851562 156.25 404.851562 169.328125 Z M 404.851562 169.328125 " style=" stroke:none;fill-rule:nonzero;fill:rgb(65.098039%,22.352941%,7.843137%);fill-opacity:1;" />
<path d="M 404.851562 169.328125 L 404.851562 464.289062 C 362.910156 494.320312 311.519531 512 256 512 L 256 145.640625 L 381.929688 145.640625 C 394.589844 145.640625 404.851562 156.25 404.851562 169.328125 Z M 404.851562 169.328125 " style=" stroke:none;fill-rule:nonzero;fill:rgb(47.843137%,17.647059%,10.196078%);fill-opacity:1;" />
<path d="M 404.851562 150.320312 L 404.851562 464.289062 C 388.730469 475.839844 371.210938 485.558594 352.589844 493.148438 L 159.410156 493.148438 C 140.789062 485.558594 123.269531 475.839844 107.148438 464.289062 L 107.148438 150.320312 C 107.148438 137.660156 117.410156 127.398438 130.070312 127.398438 L 381.929688 127.398438 C 394.589844 127.398438 404.851562 137.660156 404.851562 150.320312 Z M 404.851562 150.320312 " style=" stroke:none;fill-rule:nonzero;fill:rgb(100%,65.882353%,47.843137%);fill-opacity:1;" />
<path d="M 404.851562 150.320312 L 404.851562 464.289062 C 388.730469 475.839844 371.210938 485.558594 352.589844 493.148438 L 256 493.148438 L 256 127.398438 L 381.929688 127.398438 C 394.589844 127.398438 404.851562 137.660156 404.851562 150.320312 Z M 404.851562 150.320312 " style=" stroke:none;fill-rule:nonzero;fill:rgb(92.941176%,46.666667%,10.588235%);fill-opacity:1;" />
<path d="M 129.265625 146.480469 L 382.734375 146.480469 L 382.734375 474.0625 L 129.265625 474.0625 Z M 129.265625 146.480469 " style=" stroke:none;fill-rule:nonzero;fill:rgb(100%,100%,100%);fill-opacity:1;" />
<path d="M 256 146.480469 L 382.734375 146.480469 L 382.734375 474.0625 L 256 474.0625 Z M 256 146.480469 " style=" stroke:none;fill-rule:nonzero;fill:rgb(81.568627%,96.470588%,100%);fill-opacity:1;" />
<path d="M 297.558594 256.085938 L 276.796875 235.324219 L 288.816406 223.304688 L 297.558594 232.042969 L 316.039062 213.5625 L 328.0625 225.582031 Z M 297.558594 256.085938 " style=" stroke:none;fill-rule:nonzero;fill:rgb(19.607843%,23.137255%,35.294118%);fill-opacity:1;" />
<path d="M 297.558594 354.0625 L 276.796875 333.300781 L 288.816406 321.28125 L 297.558594 330.019531 L 316.039062 311.539062 L 328.0625 323.558594 Z M 297.558594 354.0625 " style=" stroke:none;fill-rule:nonzero;fill:rgb(19.607843%,23.137255%,35.294118%);fill-opacity:1;" />
<path d="M 319.371094 124.289062 L 319.371094 154.011719 C 319.371094 159.671875 314.78125 164.25 309.132812 164.25 L 202.871094 164.25 C 197.210938 164.25 192.632812 159.671875 192.632812 154.011719 L 192.632812 124.289062 C 192.632812 118.628906 197.210938 114.039062 202.871094 114.039062 L 309.132812 114.039062 C 314.78125 114.039062 319.371094 118.628906 319.371094 124.289062 Z M 319.371094 124.289062 " style=" stroke:none;fill-rule:nonzero;fill:rgb(100%,91.372549%,33.333333%);fill-opacity:1;" />
<path d="M 319.371094 124.289062 L 319.371094 154.011719 C 319.371094 159.671875 314.78125 164.25 309.132812 164.25 L 231.550781 164.25 C 225.902344 164.25 221.3125 159.671875 221.3125 154.011719 L 221.3125 124.289062 C 221.3125 118.628906 225.902344 114.039062 231.550781 114.039062 L 309.132812 114.039062 C 314.78125 114.039062 319.371094 118.628906 319.371094 124.289062 Z M 319.371094 124.289062 " style=" stroke:none;fill-rule:nonzero;fill:rgb(100%,81.960784%,7.058824%);fill-opacity:1;" />
<path d="M 168.144531 185.136719 L 239.164062 185.136719 L 239.164062 202.136719 L 168.144531 202.136719 Z M 168.144531 185.136719 " style=" stroke:none;fill-rule:nonzero;fill:rgb(19.607843%,23.137255%,35.294118%);fill-opacity:1;" />
<path d="M 275.285156 185.136719 L 340.183594 185.136719 L 340.183594 202.136719 L 275.285156 202.136719 Z M 275.285156 185.136719 " style=" stroke:none;fill-rule:nonzero;fill:rgb(19.607843%,23.137255%,35.294118%);fill-opacity:1;" />
<path d="M 150.386719 222.414062 L 239.164062 222.414062 L 239.164062 248.738281 L 150.386719 248.738281 Z M 150.386719 222.414062 " style=" stroke:none;fill-rule:nonzero;fill:rgb(39.607843%,69.803922%,100%);fill-opacity:1;" />
<path d="M 150.386719 272.597656 L 239.164062 272.597656 L 239.164062 298.925781 L 150.386719 298.925781 Z M 150.386719 272.597656 " style=" stroke:none;fill-rule:nonzero;fill:rgb(39.607843%,69.803922%,100%);fill-opacity:1;" />
<path d="M 150.386719 322.785156 L 239.164062 322.785156 L 239.164062 349.113281 L 150.386719 349.113281 Z M 150.386719 322.785156 " style=" stroke:none;fill-rule:nonzero;fill:rgb(39.607843%,69.803922%,100%);fill-opacity:1;" />
<path d="M 150.386719 372.96875 L 239.164062 372.96875 L 239.164062 399.296875 L 150.386719 399.296875 Z M 150.386719 372.96875 " style=" stroke:none;fill-rule:nonzero;fill:rgb(39.607843%,69.803922%,100%);fill-opacity:1;" />
<path d="M 150.386719 423.15625 L 239.164062 423.15625 L 239.164062 449.484375 L 150.386719 449.484375 Z M 150.386719 423.15625 " style=" stroke:none;fill-rule:nonzero;fill:rgb(39.607843%,69.803922%,100%);fill-opacity:1;" />
<path d="M 274.980469 272.597656 L 323.09375 272.597656 L 323.09375 298.925781 L 274.980469 298.925781 Z M 274.980469 272.597656 " style=" stroke:none;fill-rule:nonzero;fill:rgb(6.27451%,88.627451%,76.862745%);fill-opacity:1;" />
<path d="M 274.980469 372.96875 L 323.09375 372.96875 L 323.09375 399.296875 L 274.980469 399.296875 Z M 274.980469 372.96875 " style=" stroke:none;fill-rule:nonzero;fill:rgb(6.27451%,88.627451%,76.862745%);fill-opacity:1;" />
<path d="M 274.980469 423.15625 L 323.09375 423.15625 L 323.09375 449.484375 L 274.980469 449.484375 Z M 274.980469 423.15625 " style=" stroke:none;fill-rule:nonzero;fill:rgb(6.27451%,88.627451%,76.862745%);fill-opacity:1;" />
<path d="M 319.367188 124.292969 L 319.367188 154.011719 C 319.367188 159.667969 314.785156 164.25 309.128906 164.25 L 256 164.25 L 256 114.042969 L 309.128906 114.042969 C 314.785156 114.042969 319.367188 118.636719 319.367188 124.292969 Z M 319.367188 124.292969 " style=" stroke:none;fill-rule:nonzero;fill:rgb(100%,62.352941%,0%);fill-opacity:1;" />
<path d="M 468.839844 238.261719 L 468.839844 398.289062 C 463.410156 406.398438 457.53125 414.179688 451.230469 421.601562 C 449.179688 424.011719 447.101562 426.378906 444.96875 428.710938 C 444.121094 429.628906 443.28125 430.539062 442.421875 431.449219 C 439.558594 434.488281 436.621094 437.460938 433.621094 440.359375 L 433.621094 238.261719 C 433.621094 233.109375 434.589844 228.011719 436.460938 223.21875 L 436.609375 222.839844 L 442.421875 207.980469 L 447.949219 193.871094 C 448.539062 192.378906 449.878906 191.640625 451.230469 191.640625 C 452.578125 191.640625 453.929688 192.378906 454.511719 193.871094 L 465.851562 222.839844 L 466 223.21875 C 467.878906 228.011719 468.839844 233.109375 468.839844 238.261719 Z M 468.839844 238.261719 " style=" stroke:none;fill-rule:nonzero;fill:rgb(100%,91.372549%,33.333333%);fill-opacity:1;" />
<path d="M 468.839844 238.261719 L 468.839844 398.289062 C 463.410156 406.398438 457.53125 414.179688 451.230469 421.601562 C 449.179688 424.011719 447.101562 426.378906 444.96875 428.710938 C 444.121094 429.628906 443.28125 430.539062 442.421875 431.449219 L 442.421875 207.980469 L 447.949219 193.871094 C 448.539062 192.378906 449.878906 191.640625 451.230469 191.640625 C 452.578125 191.640625 453.929688 192.378906 454.511719 193.871094 L 465.851562 222.839844 L 466 223.21875 C 467.878906 228.011719 468.839844 233.109375 468.839844 238.261719 Z M 468.839844 238.261719 " style=" stroke:none;fill-rule:nonzero;fill:rgb(100%,81.960784%,7.058824%);fill-opacity:1;" />
<path d="M 468.839844 238.261719 L 468.839844 398.289062 C 463.410156 406.398438 457.53125 414.179688 451.230469 421.601562 L 451.230469 191.640625 C 452.578125 191.640625 453.929688 192.378906 454.511719 193.871094 L 465.851562 222.839844 L 466 223.21875 C 467.878906 228.011719 468.839844 233.109375 468.839844 238.261719 Z M 468.839844 238.261719 " style=" stroke:none;fill-rule:nonzero;fill:rgb(100%,62.352941%,0%);fill-opacity:1;" />
<path d="M 468.839844 238.257812 C 468.839844 233.113281 467.878906 228.007812 466.003906 223.214844 L 465.855469 222.84375 L 454.515625 193.871094 C 453.929688 192.382812 452.582031 191.636719 451.230469 191.636719 C 449.878906 191.636719 448.535156 192.382812 447.949219 193.871094 L 442.425781 207.984375 L 436.605469 222.84375 L 436.460938 223.214844 C 434.585938 228.007812 433.621094 233.113281 433.621094 238.257812 Z M 468.839844 238.257812 " style=" stroke:none;fill-rule:nonzero;fill:rgb(100%,75.294118%,64.313725%);fill-opacity:1;" />
<path d="M 468.839844 238.257812 C 468.839844 233.113281 467.878906 228.007812 466.003906 223.214844 L 454.515625 193.875 C 453.929688 192.382812 452.582031 191.636719 451.230469 191.636719 C 449.878906 191.636719 448.535156 192.382812 447.949219 193.875 L 442.425781 207.984375 L 442.425781 238.257812 Z M 468.839844 238.257812 " style=" stroke:none;fill-rule:nonzero;fill:rgb(100%,65.882353%,47.843137%);fill-opacity:1;" />
<path d="M 468.839844 238.257812 C 468.839844 233.113281 467.878906 228.007812 466.003906 223.214844 L 454.515625 193.875 C 453.929688 192.382812 452.582031 191.636719 451.230469 191.636719 L 451.230469 238.257812 Z M 468.839844 238.257812 " style=" stroke:none;fill-rule:nonzero;fill:rgb(89.019608%,51.372549%,35.294118%);fill-opacity:1;" />
<path d="M 444.96875 428.710938 C 444.121094 429.628906 443.28125 430.539062 442.421875 431.449219 C 439.558594 434.488281 436.621094 437.460938 433.621094 440.359375 L 433.621094 428.710938 Z M 444.96875 428.710938 " style=" stroke:none;fill-rule:nonzero;fill:rgb(45.490196%,49.411765%,61.960784%);fill-opacity:1;" />
<path d="M 444.96875 428.710938 C 444.121094 429.628906 443.28125 430.539062 442.421875 431.449219 L 442.421875 428.710938 Z M 444.96875 428.710938 " style=" stroke:none;fill-rule:nonzero;fill:rgb(27.843137%,30.980392%,43.529412%);fill-opacity:1;" />
<path d="M 465.855469 222.84375 L 454.515625 193.871094 C 453.929688 192.382812 452.582031 191.636719 451.230469 191.636719 C 449.882812 191.636719 448.535156 192.382812 447.949219 193.871094 L 442.425781 207.984375 L 436.609375 222.84375 Z M 465.855469 222.84375 " style=" stroke:none;fill-rule:nonzero;fill:rgb(45.490196%,49.411765%,61.960784%);fill-opacity:1;" />
<path d="M 465.855469 222.84375 L 454.515625 193.871094 C 453.929688 192.382812 452.582031 191.636719 451.230469 191.636719 C 449.882812 191.636719 448.535156 192.382812 447.949219 193.871094 L 442.425781 207.984375 L 442.425781 222.84375 Z M 465.855469 222.84375 " style=" stroke:none;fill-rule:nonzero;fill:rgb(27.843137%,30.980392%,43.529412%);fill-opacity:1;" />
<path d="M 465.855469 222.84375 L 454.515625 193.871094 C 453.929688 192.382812 452.582031 191.636719 451.230469 191.636719 L 451.230469 222.84375 Z M 465.855469 222.84375 " style=" stroke:none;fill-rule:nonzero;fill:rgb(19.607843%,23.137255%,35.294118%);fill-opacity:1;" />
</g>
</svg>