<svg height="511pt" viewBox="1 -14 511.99998 511" width="511pt" xmlns="http://www.w3.org/2000/svg"><path d="m459.207031 230.105469c0 126.804687-102.796875 229.601562-229.601562 229.601562-126.808594 0-229.605469-102.796875-229.605469-229.601562 0-126.808594 102.796875-229.605469 229.605469-229.605469 126.804687 0 229.601562 102.796875 229.601562 229.605469zm0 0" fill="#fd747f"/><path d="m412.320312 230.105469c0 100.910156-81.804687 182.714843-182.714843 182.714843-100.914063 0-182.71875-81.804687-182.71875-182.714843 0-100.914063 81.804687-182.71875 182.71875-182.71875 100.910156 0 182.714843 81.804687 182.714843 182.71875zm0 0" fill="#efedee"/><path d="m80.882812 230.105469c0-95.179688 72.777344-173.347657 165.71875-181.925781-5.597656-.515626-11.265624-.792969-17-.792969-100.910156 0-182.714843 81.804687-182.714843 182.71875 0 100.910156 81.804687 182.714843 182.714843 182.714843 5.734376 0 11.402344-.277343 17-.792968-92.941406-8.574219-165.71875-86.746094-165.71875-181.921875zm0 0" fill="#d4d4d4"/><path d="m512 368.691406c0 63.429688-51.417969 114.847656-114.847656 114.847656-63.429688 0-114.847656-51.417968-114.847656-114.847656 0-63.425781 51.417968-114.847656 114.847656-114.847656 63.429687 0 114.847656 51.421875 114.847656 114.847656zm0 0" fill="#94d9fd"/><path d="m302.90625 368.691406c0-59.953125 45.945312-109.171875 104.546875-114.382812-3.394531-.300782-6.828125-.464844-10.300781-.464844-63.429688 0-114.847656 51.421875-114.847656 114.847656 0 63.429688 51.417968 114.847656 114.847656 114.847656 3.472656 0 6.90625-.160156 10.300781-.464843-58.601563-5.207031-104.546875-54.425781-104.546875-114.382813zm0 0" fill="#5dc8eb"/><path d="m357.660156 305.1875c20.15625 0 38.921875 13.203125 38.921875 35.269531 0 37.53125-55.082031 49.695313-55.082031 67.765625v4.167969h48.304688c3.824218 0 7.125 4.519531 7.125 9.730469 0 5.210937-3.300782 10.078125-7.125 10.078125h-61.855469c-3.996094 0-9.902344-2.777344-9.902344-7.125v-16.851563c0-27.800781 55.945313-42.570312 55.945313-67.070312 0-7.125-4.691407-15.464844-16.15625-15.464844-8.515626 0-15.464844 4.519531-15.464844 15.292969 0 4.167969-4.34375 8.339843-11.816406 8.339843-5.90625 0-10.25-2.78125-10.25-12.164062 0-19.804688 18.070312-31.96875 37.355468-31.96875zm0 0" fill="#efedee"/><path d="m446.621094 404.574219h-41.703125c-4.339844 0-7.644531-2.957031-7.644531-7.992188 0-1.390625.347656-2.957031 1.21875-4.519531l41.179687-80.96875c2.085937-4.34375 5.90625-5.90625 9.554687-5.90625 3.996094 0 11.292969 3.476562 11.292969 8.6875 0 .871094-.347656 1.910156-.867187 2.953125l-33.359375 66.722656h20.328125v-18.242187c0-5.039063 5.734375-7.125 11.292968-7.125 5.734376 0 11.296876 2.085937 11.296876 7.125v18.242187h8.164062c4.691406 0 7.125 5.210938 7.125 10.597657 0 5.214843-3.476562 10.425781-7.125 10.425781h-8.164062v20.503906c0 4.691406-5.5625 7.125-11.296876 7.125-5.558593 0-11.292968-2.433594-11.292968-7.125zm0 0" fill="#efedee"/><path d="m309.242188 222.378906h-71.914063v-71.914062c0-4.265625-3.457031-7.726563-7.726563-7.726563-4.265624 0-7.726562 3.460938-7.726562 7.726563v79.640625c0 4.265625 3.460938 7.722656 7.726562 7.722656h79.640626c4.265624 0 7.726562-3.457031 7.726562-7.722656 0-4.269531-3.460938-7.726563-7.726562-7.726563zm0 0" fill="#5dc8eb"/><path d="m250.289062 230.105469c0 11.421875-9.261718 20.683593-20.683593 20.683593-11.425781 0-20.6875-9.261718-20.6875-20.683593 0-11.425781 9.261719-20.6875 20.6875-20.6875 11.421875 0 20.683593 9.261719 20.683593 20.6875zm0 0" fill="#fecc2e"/><path d="m246.390625 153.015625-11.96875-23.941406c-1.984375-3.96875-7.652344-3.96875-9.636719 0l-11.96875 23.941406c-1.792968 3.578125.8125 7.792969 4.816406 7.792969h23.941407c4.003906 0 6.609375-4.214844 4.816406-7.792969zm0 0" fill="#fd747f"/><g fill="#5dc8eb"><path d="m229.605469 47.386719c-2.589844 0-5.164063.066406-7.726563.175781v44.46875c0 4.265625 3.457032 7.726562 7.726563 7.726562 4.265625 0 7.722656-3.460937 7.722656-7.726562v-44.472656c-2.5625-.105469-5.136719-.171875-7.722656-.171875zm0 0"/><path d="m353.21875 95.5625-31.445312 31.445312c-3.019532 3.019532-3.019532 7.910157 0 10.925782 1.507812 1.507812 3.484374 2.265625 5.460937 2.265625 1.980469 0 3.957031-.753907 5.464844-2.265625l31.445312-31.445313c-3.484375-3.792969-7.132812-7.441406-10.925781-10.925781zm0 0"/><path d="m359.949219 230.105469c0 4.265625 3.457031 7.722656 7.726562 7.722656h44.472657c.105468-2.5625.171874-5.132813.171874-7.722656 0-2.589844-.066406-5.164063-.171874-7.726563h-44.472657c-4.269531 0-7.726562 3.457032-7.726562 7.726563zm0 0"/><path d="m229.601562 360.449219c-4.265624 0-7.726562 3.460937-7.726562 7.726562v44.472657c2.5625.105468 5.140625.171874 7.726562.171874 2.589844 0 5.164063-.066406 7.726563-.171874v-44.472657c0-4.265625-3.457031-7.726562-7.726563-7.726562zm0 0"/><path d="m126.507812 322.273438-31.449218 31.445312c3.488281 3.792969 7.132812 7.441406 10.929687 10.925781l31.445313-31.445312c3.019531-3.019531 3.019531-7.910157 0-10.925781-3.015625-3.019532-7.90625-3.019532-10.925782 0zm0 0"/><path d="m47.058594 237.828125h44.472656c4.265625 0 7.726562-3.457031 7.726562-7.722656 0-4.269531-3.460937-7.726563-7.726562-7.726563h-44.472656c-.105469 2.5625-.171875 5.136719-.171875 7.726563 0 2.589843.066406 5.160156.171875 7.722656zm0 0"/><path d="m95.0625 106.488281 31.445312 31.445313c1.507813 1.511718 3.484376 2.265625 5.464844 2.265625 1.976563 0 3.953125-.753907 5.460938-2.265625 3.019531-3.015625 3.019531-7.90625 0-10.925782l-31.445313-31.445312c-3.792969 3.484375-7.441406 7.132812-10.925781 10.925781zm0 0"/></g><path d="m306.691406 246.890625 23.941406-11.96875c3.96875-1.984375 3.96875-7.652344 0-9.636719l-23.941406-11.96875c-3.578125-1.792968-7.792968.8125-7.792968 4.816406v23.941407c0 4.003906 4.214843 6.609375 7.792968 4.816406zm0 0" fill="#fd747f"/></svg>